<svg xmlns="http://www.w3.org/2000/svg" data-name="Layer 1" viewBox="0 0 532 152.31"><defs><linearGradient id="a" x1="10.19" x2="142.12" y1="38.07" y2="114.24" gradientUnits="userSpaceOnUse"><stop offset="0" stop-color="#89f7fe"/><stop offset="1" stop-color="#66a6ff"/></linearGradient></defs><path d="m205.91 122.09-33.6-75.35h20.89l22.83 56.53 22.77-56.53h20.89l-33.54 75.35h-20.24zm68.28 0c-2.35 0-4.25-1.91-4.25-4.25v-71.1h18.89v10.42l.91-1.34c4.33-6.38 12.65-10.18 22.23-10.18 2.16 0 5.75.14 7.65.34l.76.08v15.22l-1.16-.28c-1.26-.3-5.32-.84-8.96-.84-12.07 0-20.84 6.75-20.84 16.06v45.88H274.2Zm61.75 0c-2.35 0-4.25-1.91-4.25-4.25v-71.1h19.48v75.35h-15.22Zm5.58-85.54c-6.16 0-11.17-5-11.17-11.14s5.01-11.2 11.17-11.2 11.17 5.02 11.17 11.2-5.01 11.14-11.17 11.14Zm83.59 85.54c-2.35 0-4.25-1.91-4.25-4.25V76.07c0-10.36-6.88-16.54-18.41-16.54-12.52 0-20.3 6.87-20.3 17.94v44.62h-15.22c-2.35 0-4.25-1.91-4.25-4.25v-71.1h18.77v11.32l.91-1.27c5.06-7.1 14.34-11.01 26.14-11.01 19.94 0 31.85 10.68 31.85 28.56v47.76h-15.22Zm83.04 0-30.53-33.07-7.83 6.38v26.69h-15.23c-2.35 0-4.25-2.07-4.25-4.62V18.56l19.48-4.22V78.3l36.47-31.56h23.48l-37.6 32.46L532 122.09h-23.85Z"/><path d="M76.16 0C34.1 0 0 34.1 0 76.16s34.1 76.16 76.16 76.16 76.16-34.1 76.16-76.16S118.22 0 76.16 0Zm0 133.06c-31.43 0-56.91-25.48-56.91-56.91s25.48-56.91 56.91-56.91 56.91 25.48 56.91 56.91-25.48 56.91-56.91 56.91Z" style="fill:url(#a)"/></svg>